<?xml version="1.0" encoding="utf-8"?>
<svg xmlns="http://www.w3.org/2000/svg" viewBox="183.682 128.15 186.459 43.785">
  <defs>
    <clipPath id="a">
      <path fill="#fff" d="M0 0h40v41H0z"/>
    </clipPath>
  </defs>
  <g clip-path="url(#a)" transform="matrix(1, 0, 0, 1, 186.656161, 129.206377)">
    <path fill="#C7231A" fill-rule="evenodd" d="M13.715.516c-2.257 0-4.42.896-6.016 2.492L0 10.707v3.524c0 2.49 1.07 4.73 2.774 6.285A8.485 8.485 0 0 0 0 26.802v3.524l7.699 7.698A8.507 8.507 0 0 0 20 37.742a8.508 8.508 0 0 0 12.301.282L40 30.326v-3.524c0-2.49-1.07-4.73-2.774-6.286A8.485 8.485 0 0 0 40 14.231v-3.524l-7.699-7.7A8.508 8.508 0 0 0 20 3.29 8.485 8.485 0 0 0 13.715.516Zm12.044 20a8.528 8.528 0 0 1-.282-.27L20 14.77l-5.477 5.477a8.528 8.528 0 0 1-.282.27c.096.087.19.177.282.269L20 26.262l5.477-5.476c.092-.093.186-.182.282-.27Zm-3.537 9.81v1.682a4.063 4.063 0 0 0 6.936 2.874l6.398-6.397v-1.683a4.063 4.063 0 0 0-6.937-2.874l-6.397 6.398Zm-4.444 0-6.397-6.398a4.063 4.063 0 0 0-6.937 2.873v1.684l6.397 6.397a4.063 4.063 0 0 0 6.937-2.873v-1.683Zm0-21.302v1.683l-6.397 6.397a4.063 4.063 0 0 1-6.937-2.873v-1.683l6.397-6.397a4.063 4.063 0 0 1 6.937 2.873Zm10.841 8.08-6.397-6.397V9.024a4.063 4.063 0 0 1 6.936-2.873l6.398 6.397v1.683a4.063 4.063 0 0 1-6.937 2.873Z" clip-rule="evenodd"/>
  </g>
  <path d="M 240.974 158.206 L 240.974 141.406 L 252.458 141.406 L 252.458 144.502 L 244.526 144.502 L 244.526 148.102 L 251.246 148.102 L 251.246 150.97 L 244.526 150.97 L 244.526 155.074 L 252.554 155.074 L 252.554 158.206 L 240.974 158.206 Z M 253.792 158.23 L 258.16 152.194 L 254.02 146.086 L 258.448 146.086 L 260.596 149.77 L 262.684 146.086 L 267.004 146.086 L 262.984 152.122 L 267.316 158.206 L 262.828 158.206 L 260.476 154.51 L 258.088 158.17 L 253.792 158.23 Z M 274.085 158.566 C 272.789 158.566 271.765 158.202 271.013 157.474 C 270.269 156.738 269.897 155.63 269.897 154.15 L 269.897 142.594 L 273.401 142.594 L 273.401 146.086 L 276.413 146.086 L 276.413 148.894 L 273.401 148.894 L 273.401 153.514 C 273.401 154.226 273.549 154.726 273.845 155.014 C 274.141 155.302 274.537 155.446 275.033 155.446 C 275.289 155.446 275.537 155.418 275.777 155.362 C 276.025 155.298 276.253 155.21 276.461 155.098 L 276.953 157.858 C 276.593 158.058 276.161 158.226 275.657 158.362 C 275.144 158.501 274.616 158.569 274.085 158.566 Z M 267.437 148.894 L 267.437 146.086 L 270.245 146.086 L 270.245 148.894 L 267.436 148.894 L 267.437 148.894 Z M 284.563 158.566 C 283.243 158.566 282.083 158.298 281.083 157.762 C 280.107 157.25 279.296 156.472 278.743 155.518 C 278.183 154.558 277.903 153.434 277.903 152.146 C 277.903 151.21 278.063 150.35 278.383 149.566 C 278.696 148.804 279.161 148.114 279.751 147.538 C 280.347 146.96 281.053 146.507 281.827 146.206 C 282.627 145.886 283.503 145.726 284.455 145.726 C 285.503 145.726 286.431 145.91 287.239 146.278 C 288.028 146.626 288.723 147.157 289.267 147.826 C 289.803 148.482 290.175 149.254 290.383 150.142 C 290.599 151.03 290.619 151.994 290.443 153.034 L 281.155 153.034 C 281.155 153.594 281.299 154.082 281.587 154.498 C 281.883 154.914 282.295 155.242 282.823 155.482 C 283.359 155.714 283.983 155.83 284.695 155.83 C 285.399 155.83 286.071 155.734 286.711 155.542 C 287.357 155.347 287.969 155.052 288.523 154.666 L 289.687 157.066 C 289.303 157.362 288.823 157.626 288.247 157.858 C 287.671 158.082 287.059 158.254 286.411 158.374 C 285.803 158.499 285.184 158.563 284.563 158.566 Z M 281.359 150.622 L 287.083 150.622 C 287.059 149.91 286.807 149.346 286.327 148.93 C 285.855 148.514 285.203 148.306 284.371 148.306 C 283.539 148.306 282.847 148.514 282.295 148.93 C 281.751 149.346 281.439 149.91 281.359 150.622 Z M 292.486 158.206 L 292.486 146.086 L 295.99 146.086 L 295.99 147.454 C 296.454 146.846 297.002 146.406 297.634 146.134 C 298.267 145.864 298.949 145.725 299.638 145.726 C 300.766 145.726 301.694 145.95 302.422 146.398 C 303.158 146.838 303.702 147.41 304.054 148.114 C 304.414 148.818 304.594 149.558 304.594 150.334 L 304.594 158.206 L 301.09 158.206 L 301.09 151.426 C 301.09 150.658 300.874 150.046 300.442 149.59 C 300.018 149.134 299.402 148.906 298.594 148.906 C 298.082 148.906 297.63 149.022 297.238 149.254 C 296.846 149.478 296.538 149.794 296.314 150.202 C 296.098 150.61 295.99 151.082 295.99 151.618 L 295.99 158.206 L 292.486 158.206 Z M 311.776 158.554 C 310.696 158.554 309.7 158.414 308.788 158.134 C 307.876 157.846 307.096 157.454 306.448 156.958 L 307.588 154.51 C 308.222 154.943 308.912 155.286 309.64 155.53 C 310.376 155.77 311.084 155.89 311.764 155.89 C 312.436 155.89 312.952 155.79 313.312 155.59 C 313.68 155.382 313.864 155.086 313.864 154.702 C 313.864 154.358 313.7 154.106 313.372 153.946 C 313.052 153.778 312.428 153.598 311.5 153.406 C 309.9 153.118 308.732 152.666 307.996 152.05 C 307.26 151.426 306.892 150.57 306.892 149.482 C 306.892 148.714 307.104 148.038 307.528 147.454 C 307.96 146.87 308.552 146.418 309.304 146.098 C 310.056 145.77 310.92 145.606 311.896 145.606 C 312.856 145.606 313.76 145.738 314.608 146.002 C 315.464 146.258 316.196 146.618 316.804 147.082 L 315.7 149.542 C 315.36 149.274 314.99 149.049 314.596 148.87 C 314.181 148.676 313.747 148.527 313.3 148.426 C 312.868 148.316 312.425 148.26 311.98 148.258 C 311.396 148.258 310.924 148.358 310.564 148.558 C 310.204 148.75 310.024 149.022 310.024 149.374 C 310.024 149.726 310.188 149.986 310.516 150.154 C 310.844 150.322 311.456 150.506 312.352 150.706 C 314.024 151.058 315.212 151.526 315.916 152.11 C 316.628 152.686 316.984 153.498 316.984 154.546 C 316.984 155.354 316.764 156.058 316.324 156.658 C 315.892 157.258 315.284 157.726 314.5 158.062 C 313.724 158.39 312.816 158.554 311.776 158.554 Z M 319.189 158.206 L 319.189 146.086 L 322.693 146.086 L 322.693 158.206 L 319.189 158.206 Z M 320.941 144.166 C 320.388 144.177 319.85 143.985 319.429 143.626 C 319.005 143.258 318.793 142.77 318.793 142.162 C 318.793 141.546 319.005 141.058 319.429 140.698 C 319.846 140.333 320.386 140.136 320.941 140.146 C 321.496 140.136 322.035 140.333 322.453 140.698 C 322.877 141.058 323.089 141.546 323.089 142.162 C 323.089 142.77 322.877 143.258 322.453 143.626 C 322.032 143.985 321.494 144.177 320.941 144.166 Z M 331.303 158.566 C 329.999 158.566 328.843 158.274 327.835 157.69 C 326.854 157.133 326.036 156.331 325.459 155.362 C 324.891 154.386 324.597 153.275 324.607 152.146 C 324.607 151.29 324.771 150.478 325.099 149.71 C 325.422 148.941 325.895 148.243 326.491 147.658 C 327.091 147.058 327.799 146.586 328.615 146.242 C 329.431 145.898 330.327 145.726 331.303 145.726 C 332.607 145.726 333.759 146.018 334.759 146.602 C 335.74 147.16 336.556 147.967 337.123 148.942 C 337.699 149.91 337.987 150.978 337.987 152.146 C 337.987 152.994 337.823 153.806 337.495 154.582 C 337.169 155.354 336.697 156.055 336.103 156.646 C 335.497 157.248 334.78 157.724 333.991 158.05 C 333.175 158.394 332.279 158.566 331.303 158.566 Z M 331.303 155.53 C 331.919 155.53 332.471 155.394 332.959 155.122 C 333.447 154.842 333.831 154.45 334.111 153.946 C 334.391 153.434 334.531 152.834 334.531 152.146 C 334.531 151.45 334.391 150.85 334.111 150.346 C 333.852 149.856 333.456 149.451 332.971 149.182 C 332.483 148.902 331.927 148.762 331.303 148.762 C 330.679 148.762 330.119 148.902 329.623 149.182 C 329.135 149.454 328.751 149.842 328.471 150.346 C 328.199 150.85 328.063 151.45 328.063 152.146 C 328.063 152.842 328.203 153.442 328.483 153.946 C 328.763 154.45 329.147 154.842 329.635 155.122 C 330.123 155.394 330.679 155.53 331.303 155.53 Z M 339.891 158.206 L 339.891 146.086 L 343.395 146.086 L 343.395 147.454 C 343.859 146.846 344.407 146.406 345.039 146.134 C 345.672 145.864 346.354 145.725 347.043 145.726 C 348.171 145.726 349.099 145.95 349.827 146.398 C 350.563 146.838 351.107 147.41 351.459 148.114 C 351.819 148.818 351.999 149.558 351.999 150.334 L 351.999 158.206 L 348.495 158.206 L 348.495 151.426 C 348.495 150.658 348.279 150.046 347.847 149.59 C 347.423 149.134 346.807 148.906 345.999 148.906 C 345.487 148.906 345.035 149.022 344.643 149.254 C 344.251 149.478 343.943 149.794 343.719 150.202 C 343.503 150.61 343.395 151.082 343.395 151.618 L 343.395 158.206 L 339.891 158.206 Z M 359.182 158.554 C 358.102 158.554 357.106 158.414 356.194 158.134 C 355.282 157.846 354.502 157.454 353.854 156.958 L 354.994 154.51 C 355.628 154.943 356.318 155.286 357.046 155.53 C 357.782 155.77 358.49 155.89 359.17 155.89 C 359.842 155.89 360.358 155.79 360.718 155.59 C 361.086 155.382 361.27 155.086 361.27 154.702 C 361.27 154.358 361.106 154.106 360.778 153.946 C 360.458 153.778 359.834 153.598 358.906 153.406 C 357.306 153.118 356.138 152.666 355.402 152.05 C 354.666 151.426 354.298 150.57 354.298 149.482 C 354.298 148.714 354.51 148.038 354.934 147.454 C 355.366 146.87 355.958 146.418 356.71 146.098 C 357.462 145.77 358.326 145.606 359.302 145.606 C 360.262 145.606 361.166 145.738 362.014 146.002 C 362.87 146.258 363.602 146.618 364.21 147.082 L 363.106 149.542 C 362.766 149.274 362.396 149.049 362.002 148.87 C 361.587 148.676 361.153 148.527 360.706 148.426 C 360.274 148.316 359.831 148.26 359.386 148.258 C 358.802 148.258 358.33 148.358 357.97 148.558 C 357.61 148.75 357.43 149.022 357.43 149.374 C 357.43 149.726 357.594 149.986 357.922 150.154 C 358.25 150.322 358.862 150.506 359.758 150.706 C 361.43 151.058 362.618 151.526 363.322 152.11 C 364.034 152.686 364.39 153.498 364.39 154.546 C 364.39 155.354 364.17 156.058 363.73 156.658 C 363.298 157.258 362.69 157.726 361.906 158.062 C 361.13 158.39 360.222 158.554 359.182 158.554 Z" style="stroke-width: 1; fill: rgb(255, 255, 255);"/>
</svg>